<svg width="14" height="14" viewBox="0 0 14 14" fill="none" xmlns="http://www.w3.org/2000/svg">
<path fill-rule="evenodd" clip-rule="evenodd" d="M8.00186 1.5C8.00186 0.947715 7.55414 0.5 7.00186 0.5C6.44958 0.5 6.00186 0.947715 6.00186 1.5V1.82442C6.00186 2.3767 6.44958 2.82442 7.00186 2.82442C7.55414 2.82442 8.00186 2.3767 8.00186 1.82442V1.5ZM8.00119 12.1795C8.00119 11.6272 7.55347 11.1795 7.00119 11.1795C6.44891 11.1795 6.00119 11.6272 6.00119 12.1795V12.5039C6.00119 13.0562 6.44891 13.5039 7.00119 13.5039C7.55347 13.5039 8.00119 13.0562 8.00119 12.5039V12.1795ZM7.00123 8.7381C7.96023 8.7381 8.73765 7.96068 8.73765 7.00169C8.73765 6.04269 7.96023 5.26527 7.00123 5.26527C6.04224 5.26527 5.26482 6.04269 5.26482 7.00169C5.26482 7.96068 6.04224 8.7381 7.00123 8.7381ZM7.00123 10.2381C8.78865 10.2381 10.2376 8.78911 10.2376 7.00169C10.2376 5.21427 8.78865 3.76527 7.00123 3.76527C5.21381 3.76527 3.76482 5.21427 3.76482 7.00169C3.76482 8.78911 5.21381 10.2381 7.00123 10.2381ZM11.1795 7.00219C11.1795 6.44991 11.6272 6.00219 12.1795 6.00219H12.5039C13.0562 6.00219 13.5039 6.44991 13.5039 7.00219C13.5039 7.55448 13.0562 8.00219 12.5039 8.00219H12.1795C11.6272 8.00219 11.1795 7.55448 11.1795 7.00219ZM0.5 7.00317C0.5 6.45088 0.947715 6.00317 1.5 6.00317H1.82442C2.3767 6.00317 2.82442 6.45088 2.82442 7.00317C2.82442 7.55545 2.3767 8.00317 1.82442 8.00317H1.5C0.947715 8.00317 0.5 7.55545 0.5 7.00317ZM10.1778 2.41011C9.78731 2.80065 9.78734 3.43382 10.1779 3.82433C10.5684 4.21483 11.2016 4.2148 11.5921 3.82426L11.9165 3.49984C12.307 3.1093 12.307 2.47613 11.9164 2.08563C11.5259 1.69512 10.8927 1.69515 10.5022 2.08569L10.1778 2.41011ZM2.08774 10.5011C1.69722 10.8917 1.69723 11.5248 2.08776 11.9153C2.47829 12.3059 3.11145 12.3058 3.50197 11.9153L3.82639 11.5909C4.21691 11.2004 4.2169 10.5672 3.82637 10.1767C3.43584 9.78615 2.80267 9.78617 2.41216 10.1767L2.08774 10.5011ZM10.1778 10.1786C10.5683 9.78811 11.2015 9.78811 11.592 10.1786L11.9164 10.5031C12.3069 10.8936 12.3069 11.5267 11.9164 11.9173C11.5259 12.3078 10.8927 12.3078 10.5022 11.9173L10.1778 11.5929C9.78726 11.2023 9.78726 10.5692 10.1778 10.1786ZM2.08676 2.0881C2.47728 1.69757 3.11045 1.69757 3.50097 2.0881L3.82539 2.41252C4.21592 2.80304 4.21592 3.43621 3.82539 3.82673C3.43487 4.21726 2.80171 4.21726 2.41118 3.82673L2.08676 3.50231C1.69624 3.11179 1.69624 2.47862 2.08676 2.0881Z" fill="black"/>
</svg>
