<svg width="24" height="20" viewBox="0 0 24 20" fill="none" xmlns="http://www.w3.org/2000/svg">
<path d="M11.3189 6.44589L10.6528 6.10104L11.3189 6.44589ZM16.0539 11.1801L15.709 10.5142L16.0539 11.1801ZM15.709 10.5142C15.3299 10.7106 14.8992 10.8218 14.4404 10.8218V12.3218C15.1449 12.3218 15.8116 12.1503 16.3989 11.8461L15.709 10.5142ZM14.4404 10.8218C12.9145 10.8218 11.6775 9.58482 11.6775 8.0589H10.1775C10.1775 10.4132 12.086 12.3218 14.4404 12.3218V10.8218ZM11.6775 8.0589C11.6775 7.60023 11.7886 7.16972 11.9849 6.79075L10.6528 6.10104C10.3488 6.68814 10.1775 7.3546 10.1775 8.0589H11.6775ZM8.75 9.8157C8.75 8.21634 9.70451 6.83829 11.0781 6.2232L10.4651 4.85419C8.57159 5.70208 7.25 7.60374 7.25 9.8157H8.75ZM12.6839 13.7496C10.5113 13.7496 8.75 11.9883 8.75 9.8157H7.25C7.25 12.8168 9.68283 15.2496 12.6839 15.2496V13.7496ZM16.2767 11.4209C15.6617 12.7948 14.2835 13.7496 12.6839 13.7496V15.2496C14.8962 15.2496 16.7981 13.9276 17.6458 12.0336L16.2767 11.4209ZM11.9849 6.79075C12.228 6.32126 12.178 5.77711 11.9621 5.38497C11.8498 5.18107 11.6644 4.96709 11.388 4.84461C11.0915 4.71324 10.7631 4.72075 10.4651 4.85419L11.0781 6.2232C11.0512 6.23525 11.006 6.24919 10.9468 6.24997C10.887 6.25075 10.8297 6.23788 10.7804 6.21602C10.686 6.17423 10.6522 6.11587 10.6481 6.10852C10.6425 6.09829 10.6462 6.10141 10.6466 6.11303C10.647 6.12315 10.6441 6.11789 10.6528 6.10104L11.9849 6.79075ZM16.3989 11.8461C16.382 11.8548 16.3768 11.852 16.3869 11.8523C16.3985 11.8528 16.4016 11.8564 16.3914 11.8508C16.3841 11.8467 16.3257 11.8129 16.2839 11.7186C16.262 11.6693 16.2491 11.6119 16.2499 11.5522C16.2507 11.4929 16.2646 11.4478 16.2767 11.4209L17.6458 12.0336C17.7792 11.7356 17.7866 11.4072 17.6552 11.1107C17.5327 10.8343 17.3187 10.649 17.1147 10.5367C16.7226 10.3208 16.1784 10.271 15.709 10.5142L16.3989 11.8461Z" fill="#EBEBEB"/>
</svg>
